# xmcd CD database file
#
# Track frame offsets:
#	150
#	18208
#	35668
#	51748
#	69306
#	82492
#	102489
#	121257
#	141227
#
# Disc length: 2133 seconds
#
# Revision: 1
# Processed by: cddbd v1.5.2PL0 Copyright (c) Steve Scherf et al.
# Submitted via: CDex 1.51
#
DISCID=85085309
DTITLE=אהובה עוזרי - עוד שנה
DYEAR=1987
DGENRE=מזרחי
TTITLE0=רוקדת הפלמנקו
TTITLE1=נגן נגן לי מיתר
TTITLE2=עוד שנה בלי אהבה
TTITLE3=אל תביט לאחור
TTITLE4=בחושך אפלה
TTITLE5=הוא הולך
TTITLE6=יא חארם על דנה
TTITLE7=כל הלילה נגנו
TTITLE8=ידעתי פחד בחיי
EXTD=YEAR: 1987
EXTT0=
EXTT1=
EXTT2=
EXTT3=
EXTT4=
EXTT5=
EXTT6=
EXTT7=
EXTT8=
PLAYORDER=
